<svg width="15" height="19" viewBox="0 0 15 19" fill="none" xmlns="http://www.w3.org/2000/svg">
<g id="Group 26">
<g id="Group 8">
<mask id="mask0_350_11761" style="mask-type:alpha" maskUnits="userSpaceOnUse" x="0" y="0" width="15" height="19">
<g id="mask 4">
<path id="Vector" d="M0 0H14.9488V18.5H0V0Z" fill="white"/>
</g>
</mask>
<g mask="url(#mask0_350_11761)">
<path id="Fill 6" fill-rule="evenodd" clip-rule="evenodd" d="M12.2766 0H2.67232C1.19641 0 0 1.19383 0 2.66656V12.2501C0 13.7228 1.19641 14.9166 2.67232 14.9166H6.92532C7.17662 14.9298 7.50375 15.0694 7.67592 15.2405L10.6838 18.2426C11.1333 18.6904 11.5014 18.5391 11.5014 17.9041V15.3761C11.5014 15.1374 11.6828 14.9411 11.9154 14.9166H12.2766C13.7525 14.9166 14.9489 13.7228 14.9489 12.2501V2.66656C14.9489 1.19383 13.7525 0 12.2766 0Z" fill="#85432D"/>
</g>
</g>
<path id="Fill 9" fill-rule="evenodd" clip-rule="evenodd" d="M9.96026 9.62396L7.41982 6.45772L5.06217 9.62396L2.54883 9.62761L7.41359 3.21289L12.3996 9.62798L9.96026 9.62396Z" fill="white"/>
</g>
</svg>
